<svg xmlns="http://www.w3.org/2000/svg" width="28.215" height="32" viewBox="0 0 28.215 32">
  <g id="noun_Files_2196630" transform="translate(-2.392 -0.5)">
    <path id="Path_3460" data-name="Path 3460" d="M29.641,11.781H3.359a.968.968,0,0,0-.967.969V31.533a.966.966,0,0,0,.967.967H29.64a.966.966,0,0,0,.967-.967V12.75A.967.967,0,0,0,29.641,11.781ZM22.16,23.3a2.3,2.3,0,0,1-1.83.773H12.668A2.307,2.307,0,0,1,10.84,23.3a3.039,3.039,0,0,1-.572-2.273.967.967,0,1,1,1.913.289,1.142,1.142,0,0,0,.129.725.509.509,0,0,0,.359.1h7.662a.481.481,0,0,0,.363-.1,1.191,1.191,0,0,0,.127-.721.968.968,0,1,1,1.913-.291A3.057,3.057,0,0,1,22.16,23.3Z" fill="#e8dac1"/>
    <path id="Path_3461" data-name="Path 3461" d="M25.508,7.078a1.342,1.342,0,0,0-1.342-1.342H13.635L13.217,4.7a1.8,1.8,0,0,0-2.049-1.342h-5.2A1.342,1.342,0,0,0,4.629,4.7v5.988H25.508Z" fill="#e8dac1"/>
    <path id="Path_3462" data-name="Path 3462" d="M14.113,4.342l.174.428h9.879a2.313,2.313,0,0,1,2.311,2.309v3.615h1.9V4.217A1.342,1.342,0,0,0,27.03,2.875H16.5c-.162-.4-.309-.762-.418-1.033A1.8,1.8,0,0,0,14.029.5h-5.2A1.342,1.342,0,0,0,7.492,1.842V2.4H11.18A2.739,2.739,0,0,1,14.113,4.342Z" fill="#e8dac1"/>
  </g>
</svg>
