<svg xmlns="http://www.w3.org/2000/svg" width="28.2" height="28.2" viewBox="0 0 28.2 28.2">
  <g id="noun_User_829920" transform="translate(-0.9 -1)" opacity="0.659">
    <g id="Group_1932" data-name="Group 1932" transform="translate(0.9 1)">
      <path id="Path_2752" data-name="Path 2752" d="M.906,311.417c.072-.534.127-1.074.22-1.6a14.09,14.09,0,0,1,5.965-9.2A11.11,11.11,0,0,0,15,303.828a11.144,11.144,0,0,0,7.915-3.228c.446.352.914.688,1.344,1.069A13.932,13.932,0,0,1,29,310.685c.028.242.066.49.1.733v.881H.9C.906,312.007.906,311.709.906,311.417Z" transform="translate(-0.9 -284.099)" fill="#fff"/>
      <path id="Path_2753" data-name="Path 2753" d="M112.664,1c.556.11,1.124.182,1.663.336a8.439,8.439,0,1,1-4.092-.149c.364-.083.738-.127,1.107-.187Z" transform="translate(-97.897 -1)" fill="#fff"/>
    </g>
  </g>
</svg>
