<svg xmlns="http://www.w3.org/2000/svg" width="21.039" height="27.5" viewBox="0 0 21.039 27.5">
  <g id="noun_form_1685056" transform="translate(0 0)" opacity="0.659">
    <path id="Path_2617" data-name="Path 2617" d="M18.163,9V36.5H39.2V9ZM35.144,29.872H22.221v-.705H35.144v.705Zm0-4.514H22.221v-.705H35.144v.705Zm0-4.512H22.221v-.705H35.144v.705Zm0-4.513H22.221v-.705H35.144v.705Z" transform="translate(-18.163 -9)" fill="#fff"/>
    <path id="Path_2623" data-name="Path 2623" d="M18.163,9V36.5H39.2V9ZM35.144,29.872H22.221v-.705H35.144v.705Zm0-4.514H22.221v-.705H35.144v.705Zm0-4.512H22.221v-.705H35.144v.705Zm0-4.513H22.221v-.705H35.144v.705Z" transform="translate(-18.163 -9)" fill="#fff"/>
  </g>
</svg>
