<svg xmlns="http://www.w3.org/2000/svg" width="65.157" height="67.361" viewBox="0 0 65.157 67.361">
  <g id="Group_2352" data-name="Group 2352" opacity="0.442">
    <path id="Path_2627" data-name="Path 2627" d="M63.254,77.574a17.175,17.175,0,0,1-7.528-1.744H24.283V74.1H52.9a17.258,17.258,0,0,1-6.309-9.329H24.283V63.046h21.94a16.828,16.828,0,0,1,1.068-9.325H24.283V51.994H48.117a17.077,17.077,0,0,1,17.76-8.739V24.7H14.343V92.065H65.877V77.354A17.386,17.386,0,0,1,63.254,77.574ZM24.283,40.94H55.937v1.727H24.283Z" transform="translate(-14.343 -24.704)" fill="#fff"/>
    <path id="Path_2628" data-name="Path 2628" d="M68.414,47.116A16.245,16.245,0,1,0,84.659,63.361,16.246,16.246,0,0,0,68.414,47.116ZM65.393,68.5l.016.021-1.263,1.029-.022-.027h0l0-.005L59,63.232l1.263-1.03,4.1,5.033,11.6-9.366,1.023,1.268Z" transform="translate(-19.503 -27.761)" fill="#fff"/>
  </g>
</svg>
