<svg xmlns="http://www.w3.org/2000/svg" width="52.644" height="49.347" viewBox="0 0 52.644 49.347">
  <g id="noun_feedback_1453124_1_" data-name="noun_feedback_1453124 (1)" opacity="0.44">
    <g id="Group_1782" data-name="Group 1782">
      <g id="Group_1781" data-name="Group 1781">
        <g id="Group_1780" data-name="Group 1780">
          <g id="Group_1778" data-name="Group 1778" transform="translate(15.326)">
            <path id="Path_2646" data-name="Path 2646" d="M87.3,50.659l-.182-.189c-.091-.095-.091-.095-.182-.095l-.091-.095a.09.09,0,0,1-.091-.095l-.274-.095c-.091-.095-.274-.095-.365-.189-2.189-.757-4.561-.379-6.751-.189H77.452a7.566,7.566,0,0,0-1.46.095H75.08c-.274,0-.547.095-.73.095h-.182a.092.092,0,0,1-.091-.095h0l.639-2.272c.365-1.42.821-2.84,1.186-4.26a12.175,12.175,0,0,0,.639-5.207,6.707,6.707,0,0,0-3.01-4.923,5.988,5.988,0,0,0-3.1-.947h-.274a1.683,1.683,0,0,0-1.733,1.7c-.091,1.325-.274,2.556-.456,3.787A13.853,13.853,0,0,1,66.322,42.9a10.169,10.169,0,0,1-1.642,2.272q-1.232,1.42-2.737,3.124l-2.281,2.651c-.547.663-1.095,1.231-1.642,1.8a2.005,2.005,0,0,1-.456.379,3.813,3.813,0,0,1-1.277.852,7.419,7.419,0,0,1-1.095.379c-1.916.568-3.01,1.136-3.1,2.272,0,.663-.091,1.231-.091,1.8V78.775h3.193c1,.189,2.1.379,3.467.568l.639.095c2.646.473,5.2.852,7.663,1.231,6.112.757,13.41,2.556,17.88-3.124,1.825-2.367,2.007-5.68,2.372-8.52.639-4.639,1.46-9.372,2.1-14.01A5.311,5.311,0,0,0,87.3,50.659Z" transform="translate(-52 -32.2)" fill="#fff"/>
          </g>
          <g id="Group_1779" data-name="Group 1779" transform="translate(0 19.879)">
            <path id="Path_2647" data-name="Path 2647" d="M45.235,53.2H37.116A1.907,1.907,0,0,0,35.2,55.188v24.9a1.907,1.907,0,0,0,1.916,1.988h8.119a1.907,1.907,0,0,0,1.916-1.988v-24.9A1.907,1.907,0,0,0,45.235,53.2Z" transform="translate(-35.2 -53.2)" fill="#fff"/>
          </g>
        </g>
      </g>
    </g>
  </g>
</svg>
